<svg xmlns="http://www.w3.org/2000/svg" version="1.1" xmlns:xlink="http://www.w3.org/1999/xlink" xmlns:svgjs="http://svgjs.com/svgjs" width="1440" height="560" preserveAspectRatio="none" viewBox="0 0 1440 560">
    <g mask="url(&quot;#SvgjsMask1047&quot;)" fill="none">
        <rect width="1440" height="560" x="0" y="0" fill="rgba(54, 14, 71, 1)"></rect>
        <path d="M 0,142 C 57.6,121 172.8,35.6 288,37 C 403.2,38.4 460.8,145 576,149 C 691.2,153 748.8,42.2 864,57 C 979.2,71.8 1036.8,216 1152,223 C 1267.2,230 1382.4,118.2 1440,92L1440 560L0 560z" fill="rgba(109, 24, 126, 1)"></path>
        <path d="M 0,520 C 72,488.8 216,372.2 360,364 C 504,355.8 576,481.2 720,479 C 864,476.8 936,337 1080,353 C 1224,369 1368,517.8 1440,559L1440 560L0 560z" fill="rgba(160, 50, 181, 1)"></path>
    </g>
    <defs>
        <mask id="SvgjsMask1047">
            <rect width="1440" height="560" fill="#ffffff"></rect>
        </mask>
    </defs>
</svg>
